<?xml version="1.0" standalone="no"?>
<!DOCTYPE svg PUBLIC "-//W3C//DTD SVG 20010904//EN"
 "http://www.w3.org/TR/2001/REC-SVG-20010904/DTD/svg10.dtd">
<svg version="1.0" xmlns="http://www.w3.org/2000/svg"
 width="412" height="126" viewBox="0 0 1292.000000 464.000000"
 preserveAspectRatio="xMidYMid meet">
<g transform="translate(0.000000,464.000000) scale(0.100000,-0.100000)"
fill="#ffffff" stroke="none">
<path d="M7553 4015 c-29 -20 -47 -71 -77 -212 -47 -225 -77 -458 -83 -654 -6
-209 1 -255 44 -265 19 -5 31 0 50 19 24 23 26 31 22 89 -16 255 5 498 62 711
50 190 64 272 51 301 -13 29 -37 33 -69 11z"/>
<path d="M9360 3993 c-58 -21 -73 -73 -44 -150 19 -48 22 -49 69 -27 35 16 59
55 70 115 6 31 3 39 -16 53 -23 16 -51 19 -79 9z"/>
<path d="M1699 3916 c-194 -54 -431 -290 -521 -521 -26 -66 -32 -98 -36 -185
-4 -94 -2 -112 18 -158 57 -133 217 -199 380 -158 95 24 202 80 260 136 83 81
60 129 -34 67 -188 -125 -358 -151 -449 -69 -64 58 -78 185 -33 312 82 237
349 500 507 500 48 0 63 -25 54 -94 -12 -107 -11 -128 8 -140 14 -9 25 -6 55
10 46 27 65 76 60 155 -9 127 -119 186 -269 145z"/>
<path d="M6157 3853 c-8 -10 -27 -65 -42 -122 -14 -58 -32 -119 -40 -137 l-14
-33 -93 -3 -93 -3 -3 -32 c-5 -46 29 -66 105 -61 69 4 66 24 21 -197 -33 -166
-34 -241 -1 -297 61 -106 229 -83 354 49 39 42 50 59 47 81 -2 15 -10 28 -18
30 -8 1 -49 -22 -90 -53 -115 -84 -178 -85 -200 -4 -13 47 -6 101 37 286 31
130 9 116 207 137 135 15 156 24 156 68 0 39 -62 47 -209 27 -45 -6 -84 -9
-86 -7 -2 2 10 56 27 120 29 111 30 118 14 143 -19 29 -56 33 -79 8z"/>
<path d="M8747 3853 c-8 -10 -27 -65 -42 -122 -14 -58 -32 -119 -40 -137 l-14
-33 -93 -3 -93 -3 -3 -32 c-5 -46 29 -66 105 -61 69 4 66 24 21 -197 -33 -166
-34 -241 -1 -297 61 -106 229 -83 354 49 39 42 50 59 47 81 -2 15 -10 28 -18
30 -8 1 -49 -22 -90 -53 -115 -84 -178 -85 -200 -4 -13 47 -6 101 37 286 31
130 9 116 207 137 135 15 156 24 156 68 0 39 -62 47 -209 27 -45 -6 -84 -9
-86 -7 -2 2 10 56 27 120 29 111 30 118 14 143 -19 29 -56 33 -79 8z"/>
<path d="M11390 3647 c-79 -33 -168 -94 -201 -139 -31 -43 -50 -118 -42 -161
10 -50 49 -80 246 -191 26 -15 54 -38 63 -52 15 -23 15 -26 -1 -44 -37 -41
-122 -63 -242 -64 -92 -1 -115 -4 -130 -18 -22 -23 -8 -67 27 -86 34 -18 157
-10 245 17 148 45 215 103 215 187 0 62 -44 107 -170 174 -108 58 -135 81
-144 120 -12 46 26 87 118 131 89 42 106 45 137 28 28 -14 58 -2 65 27 22 86
-67 120 -186 71z"/>
<path d="M5497 3626 c-87 -31 -183 -118 -263 -238 -130 -195 -151 -386 -50
-450 78 -49 228 21 345 161 27 33 52 57 55 54 3 -4 6 -27 6 -53 0 -98 54 -200
104 -200 30 0 86 37 86 57 0 9 -15 31 -34 48 -60 55 -69 171 -31 388 8 45 15
99 15 119 0 33 -4 38 -27 44 -16 4 -44 24 -64 45 -40 43 -73 49 -142 25z m89
-107 c32 -36 25 -124 -19 -213 -60 -121 -219 -276 -284 -276 -37 0 -57 41 -50
102 14 114 141 316 241 382 47 31 86 33 112 5z"/>
<path d="M8087 3626 c-87 -31 -183 -118 -263 -238 -130 -195 -151 -386 -50
-450 78 -49 228 21 345 161 27 33 52 57 55 54 3 -4 6 -27 6 -53 0 -98 54 -200
104 -200 30 0 86 37 86 57 0 9 -15 31 -34 48 -60 55 -69 171 -31 388 8 45 15
99 15 119 0 33 -4 38 -27 44 -16 4 -44 24 -64 45 -40 43 -73 49 -142 25z m89
-107 c32 -36 25 -124 -19 -213 -60 -121 -219 -276 -284 -276 -37 0 -57 41 -50
102 14 114 141 316 241 382 47 31 86 33 112 5z"/>
<path d="M2359 3606 c-183 -65 -335 -346 -289 -535 51 -213 275 -227 465 -31
107 112 153 239 133 368 -25 159 -166 249 -309 198z m137 -105 c72 -44 92
-184 43 -291 -51 -110 -173 -210 -255 -210 -77 0 -123 90 -104 201 37 225 195
374 316 300z"/>
<path d="M4095 3597 c-212 -80 -401 -300 -413 -483 -5 -83 11 -125 60 -150 76
-39 231 21 345 132 36 36 68 63 70 60 2 -2 -1 -53 -8 -112 -21 -202 -70 -341
-137 -392 -32 -24 -44 -27 -111 -26 -84 1 -153 26 -265 98 -64 41 -86 41 -86
0 0 -35 87 -119 165 -160 192 -101 356 -53 458 134 38 70 54 140 77 345 24
204 41 298 70 383 26 73 25 105 -2 139 -45 58 -123 69 -223 32z m105 -92 c56
-68 -64 -295 -207 -390 -118 -79 -195 -85 -201 -15 -5 52 12 99 67 181 110
167 291 285 341 224z"/>
<path d="M4923 3609 c-76 -23 -218 -191 -288 -342 l-34 -72 -1 60 c0 60 20
189 40 255 14 48 13 66 -6 84 -23 24 -52 19 -83 -11 -25 -25 -29 -39 -42 -153
-7 -69 -14 -204 -14 -300 0 -196 9 -233 57 -238 41 -5 64 26 77 104 25 142 71
243 168 371 59 78 124 133 158 133 12 0 36 -11 55 -25 41 -30 61 -31 85 -5 24
27 13 78 -24 114 -33 32 -94 42 -148 25z"/>
<path d="M9799 3606 c-183 -65 -335 -346 -289 -535 51 -213 275 -227 465 -31
107 112 153 239 133 368 -25 159 -166 249 -309 198z m137 -105 c72 -44 92
-184 43 -291 -51 -110 -173 -210 -255 -210 -77 0 -123 90 -104 201 37 225 195
374 316 300z"/>
<path d="M6639 3584 c-8 -10 -24 -65 -36 -123 -12 -58 -29 -140 -39 -181 -25
-111 -24 -235 2 -285 24 -46 76 -85 113 -85 71 1 204 106 278 221 21 32 41 59
46 59 4 0 7 -35 7 -78 0 -125 40 -222 92 -222 25 0 78 28 78 41 0 6 -14 30
-30 53 -56 77 -62 251 -15 429 25 95 17 137 -25 137 -32 0 -51 -27 -94 -132
-61 -150 -113 -233 -195 -311 -79 -74 -133 -95 -157 -62 -36 49 -25 171 31
345 40 121 44 169 17 193 -24 22 -56 22 -73 1z"/>
<path d="M9237 3582 c-10 -11 -21 -50 -27 -93 -5 -41 -19 -123 -30 -184 -12
-60 -24 -167 -27 -236 -5 -120 -5 -127 16 -148 24 -24 49 -27 76 -7 17 12 19
29 20 182 1 159 3 176 35 289 46 165 47 179 19 199 -31 21 -62 20 -82 -2z"/>
<path d="M2880 3555 c-22 -24 -25 -37 -32 -177 -4 -83 -15 -193 -23 -245 -26
-160 -19 -203 34 -216 54 -13 90 31 221 273 98 181 147 238 196 228 31 -5 54
-69 70 -195 27 -210 47 -252 126 -260 48 -5 95 18 123 61 23 34 11 70 -18 61
-59 -19 -75 -17 -91 8 -10 14 -25 84 -37 163 -25 176 -41 225 -85 264 -41 36
-79 39 -141 11 -56 -26 -116 -104 -210 -278 -68 -126 -93 -162 -93 -135 0 4
11 70 25 146 31 172 33 276 7 299 -26 23 -45 21 -72 -8z"/>
<path d="M10320 3555 c-22 -24 -25 -37 -32 -177 -4 -83 -15 -193 -23 -245 -26
-160 -19 -203 34 -216 54 -13 90 31 221 273 98 181 147 238 196 228 31 -5 54
-69 70 -195 27 -210 47 -252 126 -260 48 -5 95 18 123 61 23 34 11 70 -18 61
-59 -19 -75 -17 -91 8 -10 14 -25 84 -37 163 -25 176 -41 225 -85 264 -41 36
-79 39 -141 11 -56 -26 -116 -104 -210 -278 -68 -126 -93 -162 -93 -135 0 4
11 70 25 146 31 172 33 276 7 299 -26 23 -45 21 -72 -8z"/>
<path d="M8860 1340 l0 -490 74 0 75 0 3 223 c3 194 5 227 22 260 39 80 141
113 201 65 53 -41 59 -72 63 -320 l4 -228 74 0 74 0 0 208 c0 230 -10 324 -40
382 -41 80 -142 116 -250 90 -40 -10 -65 -24 -101 -60 l-49 -46 0 203 0 203
-75 0 -75 0 0 -490z"/>
<path d="M3300 1645 l0 -145 60 0 60 0 0 145 0 145 -60 0 -60 0 0 -145z"/>
<path d="M2440 1315 l0 -465 75 0 75 0 0 465 0 465 -75 0 -75 0 0 -465z"/>
<path d="M4821 1758 c-5 -13 -81 -219 -171 -458 -89 -239 -164 -438 -167 -442
-2 -5 34 -8 80 -8 l85 0 40 113 40 112 185 3 185 2 20 -52 c10 -29 29 -81 42
-115 l22 -63 80 0 c78 0 80 1 74 23 -3 12 -79 220 -169 462 l-164 440 -86 3
c-83 3 -88 2 -96 -20z m229 -540 c0 -4 -63 -8 -141 -8 -130 0 -141 1 -134 18
4 9 36 103 72 209 l65 192 69 -202 c38 -110 69 -205 69 -209z"/>
<path d="M5850 1315 l0 -465 70 0 71 0 -3 379 c-2 209 0 377 5 374 4 -2 7 -12
7 -21 0 -9 65 -177 144 -372 l144 -355 53 -3 54 -3 150 378 150 378 -3 -377
-4 -378 76 0 76 0 0 465 0 465 -102 0 -103 0 -133 -333 c-73 -182 -137 -345
-144 -362 l-11 -30 -11 30 c-6 16 -70 178 -141 360 l-131 330 -107 3 -107 3 0
-466z"/>
<path d="M9655 1563 c3 -120 8 -269 11 -330 l6 -113 57 0 58 0 6 227 c4 124 7
273 7 330 l0 103 -75 0 -76 0 6 -217z"/>
<path d="M2918 1697 l-68 -21 0 -78 0 -78 -55 0 -55 0 0 -60 0 -60 55 0 55 0
0 -218 c0 -206 1 -220 23 -262 12 -25 36 -53 55 -63 41 -24 135 -33 190 -18
l42 12 0 60 c0 56 -1 59 -19 49 -36 -19 -90 -12 -116 15 -25 24 -25 25 -25
225 l0 200 80 0 80 0 0 60 0 60 -80 0 -80 0 0 100 c0 55 -3 99 -7 99 -5 -1
-38 -11 -75 -22z"/>
<path d="M7858 1697 l-68 -21 0 -78 0 -78 -55 0 -55 0 0 -60 0 -60 55 0 55 0
0 -218 c0 -206 1 -220 23 -262 12 -25 36 -53 55 -63 41 -24 135 -33 190 -18
l42 12 0 60 c0 56 -1 59 -19 49 -36 -19 -90 -12 -116 15 -25 24 -25 25 -25
225 l0 200 80 0 80 0 0 60 0 60 -80 0 -80 0 0 100 c0 55 -3 99 -7 99 -5 -1
-38 -11 -75 -22z"/>
<path d="M3758 1527 c-106 -30 -168 -101 -168 -192 0 -94 58 -154 199 -206 77
-29 121 -67 121 -103 0 -84 -153 -113 -274 -52 l-46 23 0 -68 0 -68 43 -13
c23 -7 87 -13 142 -12 83 0 109 4 153 23 154 69 173 241 37 332 -22 14 -71 39
-110 54 -91 35 -117 59 -113 104 2 24 12 40 31 55 40 29 145 29 205 0 l42 -21
0 64 c0 60 -1 64 -27 74 -44 17 -182 21 -235 6z"/>
<path d="M7207 1529 c-21 -5 -60 -18 -88 -30 l-49 -21 0 -64 0 -64 63 35 c77
42 155 54 209 32 42 -18 78 -68 78 -109 0 -30 0 -30 -135 -48 -206 -28 -284
-99 -273 -249 8 -117 77 -176 203 -176 81 1 120 18 171 73 l34 37 0 -47 0 -48
70 0 70 0 0 260 c0 288 -3 306 -63 368 -53 55 -180 77 -290 51z m213 -402 c0
-105 -66 -180 -157 -180 -79 0 -128 62 -107 135 13 43 56 67 152 83 120 20
112 23 112 -38z"/>
<path d="M8439 1527 c-103 -29 -172 -88 -218 -187 -37 -80 -42 -221 -10 -304
28 -75 93 -146 162 -177 68 -31 207 -34 280 -6 l47 19 0 63 0 64 -52 -24
c-108 -50 -216 -23 -273 70 -27 44 -30 56 -30 134 0 76 3 91 28 134 56 95 171
133 272 88 26 -11 49 -21 51 -21 2 0 4 29 4 65 0 62 -1 66 -27 76 -44 17 -182
21 -234 6z"/>
<path d="M9669 981 c-41 -41 -40 -90 2 -125 17 -15 43 -26 59 -26 16 0 42 11
59 26 42 35 43 84 2 125 -40 39 -82 39 -122 0z"/>
</g>
</svg>
