<?xml version="1.0" standalone="no"?>
<!DOCTYPE svg PUBLIC "-//W3C//DTD SVG 20010904//EN"
 "http://www.w3.org/TR/2001/REC-SVG-20010904/DTD/svg10.dtd">
<svg version="1.0" xmlns="http://www.w3.org/2000/svg"
 width="475.000000pt" height="103.000000pt" viewBox="0 0 475.000000 103.000000"
 preserveAspectRatio="xMidYMid meet">
<g transform="translate(0.000000,103.000000) scale(0.100000,-0.100000)"
fill="#7f96d8" stroke="none">
<path d="M225 996 c-77 -32 -156 -113 -175 -180 -17 -62 -9 -170 18 -221 45
-88 98 -117 307 -165 123 -29 144 -37 172 -65 26 -26 33 -41 33 -73 0 -77 -68
-124 -176 -124 -93 1 -169 37 -192 92 -15 35 -21 40 -51 40 -18 0 -62 -5 -97
-12 -62 -11 -64 -12 -64 -42 0 -45 60 -130 117 -162 25 -15 76 -38 112 -51
127 -44 332 -27 437 38 48 29 110 101 125 145 21 61 17 171 -8 224 -45 96
-105 132 -294 180 -198 50 -229 69 -229 142 0 38 35 79 83 97 69 27 170 -2
203 -58 22 -37 22 -37 135 -10 l89 21 -16 36 c-22 54 -78 107 -148 138 -55 26
-73 29 -191 32 -119 2 -135 1 -190 -22z"/>
<path fill="#ffffff" d="M3570 521 l0 -501 105 0 105 0 0 200 0 201 107 -3 107 -3 72 -193
c39 -106 74 -195 77 -198 2 -3 54 -3 114 -2 l111 3 -83 210 c-72 182 -81 211
-68 220 64 41 101 77 126 125 26 51 28 62 25 145 -5 140 -58 220 -174 266 -55
21 -76 23 -341 27 l-283 4 0 -501z m497 319 c75 -34 102 -111 66 -187 -27 -58
-74 -73 -225 -73 l-128 0 0 140 0 140 123 0 c99 0 130 -4 164 -20z"/>
<path d="M970 515 l0 -495 330 0 330 0 0 75 0 75 -222 2 -223 3 -3 137 -3 138
181 0 180 0 0 75 0 75 -177 2 -178 3 -3 128 -3 127 226 0 225 0 0 75 0 75
-330 0 -330 0 0 -495z"/>
<path d="M1800 515 l0 -495 330 0 330 0 0 75 0 75 -222 2 -223 3 -3 137 -3
138 181 0 180 0 0 75 0 75 -177 2 -178 3 -3 128 -3 127 226 0 225 0 0 75 0 75
-330 0 -330 0 0 -495z"/>
<path d="M2630 515 l0 -495 105 0 105 0 0 125 0 125 76 105 c42 58 81 104 87
102 5 -1 50 -105 99 -230 l89 -227 119 0 119 0 -135 332 c-74 183 -134 336
-134 342 0 5 50 76 110 158 61 82 110 151 110 153 0 3 -48 5 -107 5 l-108 0
-150 -215 c-82 -117 -156 -214 -162 -214 -10 -1 -13 48 -13 214 l0 215 -105 0
-105 0 0 -495z"/>
<path fill="#ffffff" d="M4537 213 c-4 -3 -7 -48 -7 -100 l0 -93 110 0 110 0 0 100 0 100
-103 0 c-57 0 -107 -3 -110 -7z"/>
</g>
</svg>
